<?xml version="1.0" encoding="UTF-8" standalone="no"?>
<svg
   xmlns:dc="http://purl.org/dc/elements/1.1/"
   xmlns:cc="http://creativecommons.org/ns#"
   xmlns:rdf="http://www.w3.org/1999/02/22-rdf-syntax-ns#"
   xmlns:svg="http://www.w3.org/2000/svg"
   xmlns="http://www.w3.org/2000/svg"
   xmlns:sodipodi="http://sodipodi.sourceforge.net/DTD/sodipodi-0.dtd"
   xmlns:inkscape="http://www.inkscape.org/namespaces/inkscape"
   version="1.1"
   id="svg2"
   xml:space="preserve"
   width="600"
   height="600"
   viewBox="0 0 600 600"
   sodipodi:docname="2007.i039.019_cyber_security_spyware_data_protection_isometric_set-06.eps"><metadata
     id="metadata8"><rdf:RDF><cc:Work
         rdf:about=""><dc:format>image/svg+xml</dc:format><dc:type
           rdf:resource="http://purl.org/dc/dcmitype/StillImage" /></cc:Work></rdf:RDF></metadata><defs
     id="defs6"><clipPath
       clipPathUnits="userSpaceOnUse"
       id="clipPath34"><path
         d="m 1218.07,1136.32 72.92,-42.39 c -15.37,8.94 -24.91,27.94 -24.99,54.95 l -72.91,42.38 c 0.07,-27.02 9.6,-46.02 24.98,-54.94"
         id="path32" /></clipPath><clipPath
       clipPathUnits="userSpaceOnUse"
       id="clipPath56"><path
         d="m 2234.54,3831.27 -72.92,42.37 c -15.58,9.06 -37.15,7.77 -60.96,-5.96 l 72.92,-42.38 c 23.81,13.74 45.38,15.02 60.96,5.97"
         id="path54" /></clipPath><clipPath
       clipPathUnits="userSpaceOnUse"
       id="clipPath178"><path
         d="m 2754.49,1936.52 35.41,-20.59 c -2.51,1.46 -5.96,1.27 -9.77,-0.94 l -35.43,20.59 c 3.8,2.21 7.27,2.39 9.79,0.94"
         id="path176" /></clipPath><clipPath
       clipPathUnits="userSpaceOnUse"
       id="clipPath240"><path
         d="m 2260.5,3434.53 -0.29,100.24 485.29,280.19 c 13.64,7.86 26.54,11.59 37.97,11.59 27.73,0 46.83,-21.94 46.92,-59.97 l 0.01,-5.59 c -6.24,-1.91 -12.76,-4.78 -19.45,-8.63 L 2260.5,3434.53"
         id="path238" /></clipPath><clipPath
       clipPathUnits="userSpaceOnUse"
       id="clipPath274"><path
         d="m 2933.28,3709.54 21.27,-12.36 c -15.16,8.81 -36.16,7.57 -59.34,-5.81 l -21.26,12.36 c 23.17,13.38 44.17,14.63 59.33,5.81"
         id="path272" /></clipPath><clipPath
       clipPathUnits="userSpaceOnUse"
       id="clipPath286"><path
         d="m 1639.08,1826.54 -21.27,12.37 c -14.96,8.69 -24.24,27.17 -24.31,53.45 l 21.27,-12.36 c 0.07,-26.28 9.35,-44.76 24.31,-53.46"
         id="path284" /></clipPath><clipPath
       clipPathUnits="userSpaceOnUse"
       id="clipPath304"><path
         d="m 1612,2854.53 -21.26,12.36 c -0.16,52.91 37.07,117.38 83.12,143.97 l 21.27,-12.36 c -46.06,-26.59 -83.27,-91.06 -83.13,-143.97"
         id="path302" /></clipPath><clipPath
       clipPathUnits="userSpaceOnUse"
       id="clipPath350"><path
         d="m 1237.7,753.301 212.29,-123.039 c -25.61,14.879 -41.54,46.418 -41.67,91.136 l -212.28,123.043 c 0.12,-44.711 16.06,-76.25 41.66,-91.14"
         id="path348" /></clipPath><clipPath
       clipPathUnits="userSpaceOnUse"
       id="clipPath362"><path
         d="m 2134.38,1813.35 -212.29,123.05 c -25.94,15.07 -61.8,13.05 -101.23,-9.71 l 212.29,-123.04 c 39.42,22.76 75.29,24.78 101.23,9.7"
         id="path360" /></clipPath><clipPath
       clipPathUnits="userSpaceOnUse"
       id="clipPath380"><path
         d="m 1548.8,1524.01 -212.28,123.05 c -78.37,-45.25 -142.32,-156.01 -142.06,-246.07 l 212.28,-123.05 c -0.25,90.06 63.69,200.82 142.06,246.07"
         id="path378" /></clipPath></defs><sodipodi:namedview
     pagecolor="#ffffff"
     bordercolor="#666666"
     borderopacity="1"
     objecttolerance="10"
     gridtolerance="10"
     guidetolerance="10"
     inkscape:pageopacity="0"
     inkscape:pageshadow="2"
     inkscape:window-width="640"
     inkscape:window-height="480"
     id="namedview4" /><g
     id="g10"
     inkscape:groupmode="layer"
     inkscape:label="ink_ext_XXXXXX"
     transform="matrix(1.3333333,0,0,-1.3333333,0,600)"><g
       id="g12"
       transform="scale(0.1)"><path
         d="m 1251.49,3374.37 31.99,-18.59 -31.99,18.59 c 6.77,5.89 13.86,11.04 21.17,15.26 l 827.99,478.05 72.93,-42.38 -828,-478.05 c -7.31,-4.22 -14.41,-9.37 -21.17,-15.26 -13.97,-12.15 -26.54,-27.46 -36.79,-44.28 l -72.92,42.38 c 10.24,16.82 22.83,32.13 36.79,44.28"
         style="fill:#f4f4fa;fill-opacity:1;fill-rule:nonzero;stroke:none"
         id="path14" /><path
         d="m 1345.58,3347.25 -72.92,42.38 c -47.32,-27.32 -85.55,-93.54 -85.39,-147.9 l 72.93,-42.38 c -0.16,54.37 38.06,120.58 85.38,147.9"
         style="fill:#f4f4fa;fill-opacity:1;fill-rule:nonzero;stroke:none"
         id="path16" /><path
         d="m 2196.58,1601.04 -16.63,-23.09 c 47.32,27.32 85.55,93.53 85.39,147.89 l -11.83,-26.2 c 0.13,-36.2 -25.41,-80.43 -56.93,-98.6"
         style="fill:#bfbeed;fill-opacity:1;fill-rule:nonzero;stroke:none"
         id="path18" /><path
         d="m 1368.58,1122.99 -16.63,-23.09 828,478.05 16.63,23.09 -828,-478.05"
         style="fill:#bfbeed;fill-opacity:1;fill-rule:nonzero;stroke:none"
         id="path20" /><path
         d="m 1312.17,1144.75 -44.83,-12.23 c 2.93,-17.16 10.49,-29.8 21.29,-37.11 l 37.74,24.6 c -7.2,4.87 -12.25,13.29 -14.2,24.74"
         style="fill:#f4f4fa;fill-opacity:1;fill-rule:nonzero;stroke:none"
         id="path22" /><path
         d="m 1326.37,1120.01 -37.74,-24.6 c 15.72,-10.63 38.28,-9.97 63.32,4.49 l 16.63,23.09 c -16.67,-9.64 -31.72,-10.07 -42.21,-2.98"
         style="fill:#bfbeed;fill-opacity:1;fill-rule:nonzero;stroke:none"
         id="path24" /><path
         d="m 1218.07,1136.32 72.92,-42.39 c -15.37,8.94 -24.91,27.94 -24.99,54.95 l -72.91,42.38 c 0.07,-27.02 9.6,-46.02 24.98,-54.94"
         style="fill:#bfbeed;fill-opacity:1;fill-rule:nonzero;stroke:none"
         id="path26" /><g
         id="g28"><g
           id="g30"
           clip-path="url(#clipPath34)"><path
             d="m 1266,1148.88 -72.91,42.38 c 0.07,-27.02 9.6,-46.02 24.98,-54.94 l 72.92,-42.39 c -15.37,8.94 -24.91,27.94 -24.99,54.95"
             style="fill:#bfbeed;fill-opacity:1;fill-rule:nonzero;stroke:none"
             id="path36" /></g></g><path
         d="m 2253.51,1699.64 11.83,26.2 -5.81,2050.48 -11.83,-26.21 5.81,-2050.47"
         style="fill:#bfbeed;fill-opacity:1;fill-rule:nonzero;stroke:none"
         id="path38" /><path
         d="m 2247.7,3750.11 11.83,26.21 c -0.03,8.59 -1.01,16.37 -2.83,23.28 l -10.88,-33.97 c 1.21,-4.6 1.87,-9.79 1.88,-15.52"
         style="fill:#bfbeed;fill-opacity:1;fill-rule:nonzero;stroke:none"
         id="path40" /><path
         d="m 2245.82,3765.63 10.88,33.97 c -4.22,15.98 -12.94,27.27 -24.73,33.04 l -2.64,-44.99 c 7.85,-3.85 13.68,-11.37 16.49,-22.02"
         style="fill:#f4f4fa;fill-opacity:1;fill-rule:nonzero;stroke:none"
         id="path42" /><path
         d="m 2229.33,3787.65 2.64,44.99 c -10.77,5.27 -24.1,5.93 -38.89,1.35 l 10.31,-45.43 c 9.85,3.05 18.75,2.61 25.94,-0.91"
         style="fill:#f4f4fa;fill-opacity:1;fill-rule:nonzero;stroke:none"
         id="path44" /><path
         d="m 2203.39,3788.56 -10.31,45.43 c -6.27,-1.94 -12.8,-4.82 -19.5,-8.69 l 16.82,-42.53 c 4.47,2.58 8.81,4.5 12.99,5.79"
         style="fill:#f4f4fa;fill-opacity:1;fill-rule:nonzero;stroke:none"
         id="path46" /><path
         d="m 2234.54,3831.27 -72.92,42.37 c -15.58,9.06 -37.15,7.77 -60.96,-5.96 l 72.92,-42.38 c 23.81,13.74 45.38,15.02 60.96,5.97"
         style="fill:#f4f4fa;fill-opacity:1;fill-rule:nonzero;stroke:none"
         id="path48" /><g
         id="g50"><g
           id="g52"
           clip-path="url(#clipPath56)"><path
             d="m 2234.54,3831.27 -72.92,42.37 c -9.45,5.49 -21.1,7.18 -34.11,4.6 l 72.92,-42.38 c 13.02,2.59 24.66,0.89 34.11,-4.59"
             style="fill:#f4f4fa;fill-opacity:1;fill-rule:nonzero;stroke:none"
             id="path58" /><path
             d="m 2200.43,3835.86 -72.92,42.38 c -8.45,-1.67 -17.48,-5.15 -26.85,-10.56 l 72.92,-42.38 c 9.38,5.41 18.4,8.89 26.85,10.56"
             style="fill:#f4f4fa;fill-opacity:1;fill-rule:nonzero;stroke:none"
             id="path60" /></g></g><path
         d="m 1305.47,3206.12 5.81,-2050.48 c 0.01,-3.88 0.31,-7.52 0.89,-10.89 l -44.83,-12.23 c -0.87,5.07 -1.32,10.53 -1.34,16.36 l -5.8,2050.47 45.27,6.77"
         style="fill:#f4f4fa;fill-opacity:1;fill-rule:nonzero;stroke:none"
         id="path62" /><path
         d="m 1260.2,3199.35 -72.93,42.38 5.82,-2050.47 72.91,-42.38 -5.8,2050.47"
         style="fill:#bfbeed;fill-opacity:1;fill-rule:nonzero;stroke:none"
         id="path64" /><path
         d="m 2190.4,3782.77 -16.82,42.53 -828,-478.05 16.82,-42.53 828,478.05"
         style="fill:#f4f4fa;fill-opacity:1;fill-rule:nonzero;stroke:none"
         id="path66" /><path
         d="m 1362.4,3304.72 c -31.52,-18.17 -57.05,-62.4 -56.93,-98.6 l 5.81,-2050.48 c 0.09,-36.22 25.79,-50.86 57.3,-32.65 l 828,478.05 c 31.52,18.17 57.06,62.4 56.93,98.6 l -5.81,2050.47 c -0.09,36.23 -25.78,50.87 -57.3,32.66 l -828,-478.05"
         style="fill:#f4f4fa;fill-opacity:1;fill-rule:nonzero;stroke:none"
         id="path68" /><path
         d="m 1362.4,3304.72 -16.82,42.53 c -37.08,-21.4 -68.56,-66.69 -80.39,-111.44 l 43.6,-5.4 c 7.89,29.84 28.92,60.07 53.61,74.31"
         style="fill:#f4f4fa;fill-opacity:1;fill-rule:nonzero;stroke:none"
         id="path70" /><path
         d="m 1308.79,3230.41 -43.6,5.4 c -3.26,-12.37 -5.03,-24.69 -4.99,-36.46 l 45.27,6.77 c -0.02,7.83 1.15,16.04 3.32,24.29"
         style="fill:#f4f4fa;fill-opacity:1;fill-rule:nonzero;stroke:none"
         id="path72" /><path
         d="m 1287.62,3287.71 -72.92,42.38 c -11.8,-19.37 -20.52,-40.74 -24.68,-61.61 l 72.91,-42.38 c 4.18,20.87 12.89,42.25 24.69,61.61"
         style="fill:#f4f4fa;fill-opacity:1;fill-rule:nonzero;stroke:none"
         id="path74" /><path
         d="m 1262.93,3226.1 -72.91,42.38 c -1.82,-9.08 -2.77,-18.07 -2.75,-26.75 l 72.93,-42.38 c -0.04,8.68 0.92,17.67 2.73,26.75"
         style="fill:#bfbeed;fill-opacity:1;fill-rule:nonzero;stroke:none"
         id="path76" /><path
         d="m 1309.38,1219.15 c 0,-10.86 2.34,-19.82 6.52,-26.5 9.56,-15.58 28.73,-18.9 50.77,-6.13 0,0 836.45,483.44 840.47,486.8 25.52,21.24 44.58,58.54 44.47,89.82 l -5.86,1987.14 c -0.06,36.21 -25.74,50.87 -57.29,32.68 L 1360.48,3304.9 c -24.21,-13.96 -44.96,-43.39 -53.1,-72.76 -1.47,-5.22 -2.56,-10.43 -3.21,-15.53 -0.43,-3.48 5.21,-1997.46 5.21,-1997.46"
         style="fill:#3a2c99;fill-opacity:1;fill-rule:nonzero;stroke:none"
         id="path78" /><path
         d="m 1603.47,3326.88 352.04,203.25 c 19.76,11.4 37.78,34.83 46.43,60.33 l 37.94,111.94 -520.78,-300.66 37.95,-68.13 c 8.64,-15.52 26.66,-18.13 46.42,-6.73"
         style="fill:#f4f4fa;fill-opacity:1;fill-rule:nonzero;stroke:none"
         id="path80" /><path
         d="m 1642.33,3411.95 c -0.54,-24.39 -18.52,-53.79 -40.07,-65.53 -5.65,-3.07 -11.12,-4.64 -15.82,-4.52 -4.22,0.11 -7.74,1.55 -10.43,4.17 -4.19,4.05 -6.42,10.91 -6.21,19.9 0.54,24.4 18.52,53.79 40.07,65.52 5.64,3.08 11.12,4.64 15.83,4.52 2.32,-0.05 4.42,-0.52 6.28,-1.36 6.84,-3.05 10.61,-11.08 10.35,-22.7"
         style="fill:#f4f4fa;fill-opacity:1;fill-rule:nonzero;stroke:none"
         id="path82" /><path
         d="m 1638.2,3414.75 c -0.54,-24.4 -18.53,-53.8 -40.07,-65.53 -5.64,-3.07 -11.12,-4.63 -15.83,-4.52 -2.32,0.06 -4.42,0.53 -6.29,1.37 -4.19,4.05 -6.42,10.91 -6.21,19.9 0.54,24.4 18.52,53.79 40.07,65.52 5.64,3.08 11.12,4.64 15.83,4.52 2.32,-0.05 4.42,-0.52 6.28,-1.36 4.19,-4.03 6.42,-10.9 6.22,-19.9"
         style="fill:#bfbeed;fill-opacity:1;fill-rule:nonzero;stroke:none"
         id="path84" /><path
         d="m 1582.38,3348.14 c -1.59,0.05 -3.07,0.33 -4.4,0.84 -3.23,3.47 -4.91,9.44 -4.74,16.91 0.52,23.31 17.69,51.38 38.28,62.57 5.1,2.79 9.98,4.21 14.09,4.11 1.6,-0.04 3.08,-0.32 4.4,-0.83 3.24,-3.45 4.91,-9.42 4.74,-16.92 -0.51,-23.31 -17.68,-51.37 -38.27,-62.57 -5.11,-2.79 -9.98,-4.21 -14.1,-4.11"
         style="fill:#3a2c99;fill-opacity:1;fill-rule:nonzero;stroke:none"
         id="path86" /><path
         d="m 1609.24,3417.08 c -0.07,-2.91 -2.21,-6.4 -4.77,-7.79 -2.55,-1.4 -4.57,-0.17 -4.5,2.75 0.07,2.91 2.21,6.4 4.77,7.79 2.56,1.39 4.57,0.16 4.5,-2.75"
         style="fill:#3a2c99;fill-opacity:1;fill-rule:nonzero;stroke:none"
         id="path88" /><path
         d="m 1597.97,3410.35 c 1.22,-1.83 0.38,-5.47 -1.87,-8.13 -2.25,-2.66 -5.07,-3.34 -6.28,-1.51 -1.23,1.82 -0.38,5.46 1.87,8.12 2.26,2.67 5.07,3.35 6.28,1.52"
         style="fill:#3a2c99;fill-opacity:1;fill-rule:nonzero;stroke:none"
         id="path90" /><path
         d="m 1588.32,3398.26 c 2.18,-0.25 2.86,-3.06 1.51,-6.27 -1.34,-3.23 -4.19,-5.63 -6.37,-5.38 -2.18,0.25 -2.86,3.06 -1.52,6.28 1.34,3.22 4.2,5.62 6.38,5.37"
         style="fill:#3a2c99;fill-opacity:1;fill-rule:nonzero;stroke:none"
         id="path92" /><path
         d="m 1582.87,3384.06 c 2.56,1.39 4.58,0.16 4.5,-2.75 -0.07,-2.91 -2.21,-6.41 -4.76,-7.8 -2.57,-1.4 -4.58,-0.16 -4.51,2.75 0.08,2.91 2.21,6.41 4.77,7.8"
         style="fill:#3a2c99;fill-opacity:1;fill-rule:nonzero;stroke:none"
         id="path94" /><path
         d="m 1583.08,3371.54 c 2.25,2.66 5.06,3.34 6.28,1.51 1.22,-1.82 0.37,-5.46 -1.87,-8.11 -2.26,-2.67 -5.07,-3.35 -6.29,-1.53 -1.21,1.83 -0.37,5.47 1.88,8.13"
         style="fill:#3a2c99;fill-opacity:1;fill-rule:nonzero;stroke:none"
         id="path96" /><path
         d="m 1588.89,3364.07 c 1.35,3.22 4.2,5.62 6.38,5.37 2.18,-0.25 2.86,-3.06 1.52,-6.28 -1.34,-3.22 -4.2,-5.62 -6.38,-5.37 -2.18,0.25 -2.86,3.06 -1.52,6.28"
         style="fill:#3a2c99;fill-opacity:1;fill-rule:nonzero;stroke:none"
         id="path98" /><path
         d="m 1598.76,3363.64 c 0.07,2.9 2.21,6.4 4.76,7.79 2.56,1.4 4.57,0.16 4.5,-2.75 -0.07,-2.91 -2.2,-6.4 -4.76,-7.8 -2.56,-1.38 -4.58,-0.16 -4.5,2.76"
         style="fill:#3a2c99;fill-opacity:1;fill-rule:nonzero;stroke:none"
         id="path100" /><path
         d="m 1610.02,3370.37 c -1.21,1.82 -0.37,5.46 1.88,8.12 2.25,2.67 5.06,3.34 6.28,1.52 1.22,-1.83 0.38,-5.47 -1.88,-8.13 -2.25,-2.66 -5.06,-3.34 -6.28,-1.51"
         style="fill:#3a2c99;fill-opacity:1;fill-rule:nonzero;stroke:none"
         id="path102" /><path
         d="m 1619.67,3382.45 c -2.18,0.26 -2.85,3.06 -1.51,6.28 1.34,3.22 4.2,5.63 6.38,5.38 2.18,-0.25 2.86,-3.06 1.51,-6.29 -1.34,-3.21 -4.2,-5.62 -6.38,-5.37"
         style="fill:#3a2c99;fill-opacity:1;fill-rule:nonzero;stroke:none"
         id="path104" /><path
         d="m 1625.13,3396.66 c -2.56,-1.39 -4.58,-0.16 -4.5,2.75 0.07,2.91 2.2,6.4 4.76,7.8 2.56,1.39 4.57,0.15 4.5,-2.76 -0.07,-2.91 -2.21,-6.4 -4.76,-7.79"
         style="fill:#3a2c99;fill-opacity:1;fill-rule:nonzero;stroke:none"
         id="path106" /><path
         d="m 1624.92,3409.18 c -2.26,-2.66 -5.07,-3.35 -6.29,-1.52 -1.21,1.82 -0.37,5.46 1.89,8.12 2.24,2.67 5.06,3.35 6.27,1.52 1.22,-1.83 0.38,-5.46 -1.87,-8.12"
         style="fill:#3a2c99;fill-opacity:1;fill-rule:nonzero;stroke:none"
         id="path108" /><path
         d="m 1619.1,3416.65 c -1.34,-3.22 -4.2,-5.63 -6.38,-5.37 -2.18,0.24 -2.85,3.06 -1.51,6.27 1.34,3.22 4.19,5.63 6.37,5.38 2.19,-0.25 2.86,-3.06 1.52,-6.28"
         style="fill:#3a2c99;fill-opacity:1;fill-rule:nonzero;stroke:none"
         id="path110" /><path
         d="m 1614.84,3396.26 c -0.17,-6.81 -5.16,-14.98 -11.15,-18.24 -5.99,-3.27 -10.71,-0.38 -10.54,6.43 0.17,6.83 5.17,14.99 11.16,18.25 5.99,3.26 10.7,0.38 10.53,-6.44"
         style="fill:#3a2c99;fill-opacity:1;fill-rule:nonzero;stroke:none"
         id="path112" /><path
         d="m 1757.21,3478.77 c -0.54,-24.4 -18.51,-53.8 -40.07,-65.54 -5.65,-3.07 -11.12,-4.63 -15.82,-4.51 -4.22,0.1 -7.73,1.55 -10.43,4.16 -4.18,4.06 -6.41,10.91 -6.21,19.9 0.54,24.41 18.52,53.8 40.07,65.53 5.64,3.07 11.12,4.64 15.83,4.51 2.32,-0.05 4.42,-0.51 6.28,-1.35 6.84,-3.05 10.62,-11.08 10.35,-22.7"
         style="fill:#f4f4fa;fill-opacity:1;fill-rule:nonzero;stroke:none"
         id="path114" /><path
         d="m 1753.08,3481.56 c -0.54,-24.4 -18.52,-53.8 -40.07,-65.52 -5.64,-3.08 -11.11,-4.64 -15.83,-4.52 -2.31,0.06 -4.42,0.52 -6.29,1.36 -4.18,4.06 -6.41,10.91 -6.21,19.9 0.54,24.41 18.52,53.8 40.07,65.53 5.64,3.07 11.12,4.64 15.83,4.51 2.32,-0.05 4.42,-0.51 6.28,-1.35 4.19,-4.04 6.43,-10.91 6.22,-19.91"
         style="fill:#bfbeed;fill-opacity:1;fill-rule:nonzero;stroke:none"
         id="path116" /><path
         d="m 1697.27,3414.96 c -1.6,0.04 -3.08,0.32 -4.41,0.84 -3.23,3.47 -4.91,9.44 -4.73,16.9 0.51,23.31 17.69,51.39 38.27,62.58 5.11,2.79 9.98,4.21 14.1,4.1 1.59,-0.04 3.07,-0.31 4.4,-0.83 3.23,-3.45 4.9,-9.42 4.74,-16.91 -0.52,-23.31 -17.69,-51.38 -38.28,-62.58 -5.11,-2.78 -9.98,-4.2 -14.09,-4.1"
         style="fill:#3a2c99;fill-opacity:1;fill-rule:nonzero;stroke:none"
         id="path118" /><path
         d="m 1724.12,3483.9 c -0.07,-2.92 -2.2,-6.41 -4.77,-7.8 -2.55,-1.39 -4.57,-0.16 -4.5,2.75 0.08,2.92 2.21,6.4 4.77,7.79 2.56,1.4 4.57,0.17 4.5,-2.74"
         style="fill:#3a2c99;fill-opacity:1;fill-rule:nonzero;stroke:none"
         id="path120" /><path
         d="m 1712.86,3477.16 c 1.21,-1.82 0.37,-5.46 -1.88,-8.12 -2.26,-2.66 -5.07,-3.34 -6.28,-1.51 -1.22,1.82 -0.38,5.46 1.87,8.12 2.26,2.66 5.07,3.34 6.29,1.51"
         style="fill:#3a2c99;fill-opacity:1;fill-rule:nonzero;stroke:none"
         id="path122" /><path
         d="m 1703.2,3465.08 c 2.18,-0.25 2.86,-3.06 1.51,-6.28 -1.33,-3.22 -4.19,-5.63 -6.37,-5.38 -2.18,0.26 -2.86,3.07 -1.52,6.28 1.35,3.22 4.21,5.62 6.38,5.38"
         style="fill:#3a2c99;fill-opacity:1;fill-rule:nonzero;stroke:none"
         id="path124" /><path
         d="m 1697.75,3450.87 c 2.56,1.4 4.58,0.16 4.5,-2.75 -0.07,-2.91 -2.2,-6.4 -4.76,-7.79 -2.57,-1.39 -4.58,-0.17 -4.51,2.75 0.08,2.91 2.22,6.41 4.77,7.79"
         style="fill:#3a2c99;fill-opacity:1;fill-rule:nonzero;stroke:none"
         id="path126" /><path
         d="m 1697.96,3438.35 c 2.26,2.67 5.06,3.35 6.28,1.52 1.22,-1.82 0.38,-5.46 -1.87,-8.12 -2.26,-2.66 -5.06,-3.34 -6.29,-1.52 -1.21,1.83 -0.37,5.46 1.88,8.12"
         style="fill:#3a2c99;fill-opacity:1;fill-rule:nonzero;stroke:none"
         id="path128" /><path
         d="m 1703.77,3430.88 c 1.35,3.22 4.21,5.63 6.39,5.38 2.17,-0.25 2.85,-3.06 1.51,-6.28 -1.34,-3.22 -4.2,-5.63 -6.38,-5.38 -2.18,0.25 -2.85,3.06 -1.52,6.28"
         style="fill:#3a2c99;fill-opacity:1;fill-rule:nonzero;stroke:none"
         id="path130" /><path
         d="m 1713.64,3430.46 c 0.07,2.91 2.21,6.4 4.76,7.79 2.57,1.39 4.58,0.16 4.51,-2.75 -0.08,-2.92 -2.21,-6.4 -4.77,-7.8 -2.56,-1.39 -4.57,-0.16 -4.5,2.76"
         style="fill:#3a2c99;fill-opacity:1;fill-rule:nonzero;stroke:none"
         id="path132" /><path
         d="m 1724.91,3437.19 c -1.23,1.82 -0.38,5.46 1.88,8.12 2.25,2.66 5.06,3.34 6.27,1.52 1.22,-1.83 0.38,-5.47 -1.88,-8.13 -2.24,-2.66 -5.06,-3.34 -6.27,-1.51"
         style="fill:#3a2c99;fill-opacity:1;fill-rule:nonzero;stroke:none"
         id="path134" /><path
         d="m 1734.56,3449.27 c -2.19,0.25 -2.86,3.06 -1.52,6.28 1.35,3.22 4.2,5.63 6.38,5.38 2.18,-0.25 2.85,-3.07 1.51,-6.29 -1.34,-3.21 -4.19,-5.62 -6.37,-5.37"
         style="fill:#3a2c99;fill-opacity:1;fill-rule:nonzero;stroke:none"
         id="path136" /><path
         d="m 1740.01,3463.47 c -2.56,-1.39 -4.57,-0.16 -4.5,2.75 0.07,2.92 2.21,6.41 4.76,7.8 2.56,1.39 4.58,0.16 4.5,-2.75 -0.07,-2.92 -2.2,-6.4 -4.76,-7.8"
         style="fill:#3a2c99;fill-opacity:1;fill-rule:nonzero;stroke:none"
         id="path138" /><path
         d="m 1739.8,3475.99 c -2.25,-2.67 -5.07,-3.34 -6.28,-1.52 -1.21,1.83 -0.38,5.47 1.88,8.14 2.24,2.66 5.06,3.33 6.27,1.51 1.22,-1.83 0.38,-5.47 -1.87,-8.13"
         style="fill:#3a2c99;fill-opacity:1;fill-rule:nonzero;stroke:none"
         id="path140" /><path
         d="m 1733.98,3483.46 c -1.34,-3.21 -4.19,-5.62 -6.38,-5.37 -2.18,0.25 -2.85,3.06 -1.51,6.28 1.35,3.22 4.2,5.62 6.38,5.37 2.18,-0.24 2.86,-3.06 1.51,-6.28"
         style="fill:#3a2c99;fill-opacity:1;fill-rule:nonzero;stroke:none"
         id="path142" /><path
         d="m 1729.72,3463.07 c -0.17,-6.81 -5.16,-14.98 -11.15,-18.24 -5.99,-3.26 -10.71,-0.37 -10.53,6.44 0.16,6.82 5.16,14.98 11.15,18.25 5.99,3.25 10.7,0.37 10.53,-6.45"
         style="fill:#3a2c99;fill-opacity:1;fill-rule:nonzero;stroke:none"
         id="path144" /><path
         d="m 1814.12,3497.89 43.71,25.24 c 8.16,4.71 14.84,16.27 14.84,25.7 0,9.42 -6.68,13.28 -14.84,8.56 l -43.71,-25.23 c -8.16,-4.71 -14.83,-16.27 -14.83,-25.7 0,-9.42 6.67,-13.27 14.83,-8.57"
         style="fill:#231869;fill-opacity:1;fill-rule:nonzero;stroke:none"
         id="path146" /><path
         d="m 2379.31,1917.76 c 1.49,1.03 3.62,0.96 5.36,0.26 1.73,-0.7 3.15,-1.93 4.52,-3.14 13.06,-11.54 27.22,-26.51 38.46,-39.55 l -0.94,0.57 c 1.62,-1.81 3.17,-3.68 4.63,-5.62 l 0.78,-1.14 c 5.2,-1.4 10.45,-3.18 13.93,-6.98 2.42,-2.64 3.7,-6.01 4.62,-9.34 1.54,-5.58 3.1,-22.31 2.89,-28.03 -0.06,-1.54 -3.56,-5.87 -5.88,-6.29 l -0.66,0.51 -0.15,-0.49 c -3.96,-3.05 -7.31,-6.79 -9.79,-10.98 -2.06,-3.46 -6,-2.69 -10.09,-3.92 -15.22,18.65 -34.41,28.49 -45.68,49.33 -1.41,2.6 -2.67,5.47 -2.09,8.29 0.56,2.81 3.76,5.27 6.71,4.26 -1.35,2.68 -0.72,6.05 1.52,8.09 2.22,2.03 5.88,2.58 8.77,1.32 -0.71,2.57 0.85,5.37 3.32,6.66 1.16,0.6 2.47,0.9 3.82,0.94 -7.14,6.93 -13.62,13.71 -20.58,22.51 -2.28,2.88 -6.06,6.53 -5.25,9.96 0.25,1.08 0.83,2.13 1.78,2.78"
         style="fill:#f9d5c3;fill-opacity:1;fill-rule:nonzero;stroke:none"
         id="path148" /><path
         d="m 2827.1,865.328 c -1.04,3.293 -3.14,5.063 -9.11,5.551 -7.06,0.582 -14.15,0.902 -21.22,1.351 -9.58,0.598 -19.14,1.219 -28.72,1.829 0.48,7.75 0.71,15.621 1.56,23.32 -10.17,-2.168 -15.83,0.801 -25.57,4.41 -11.47,4.231 -23.12,8.07 -34.86,11.492 -5.02,1.449 -10.29,2.848 -15.42,1.801 -12.93,-2.641 -19.99,-23.934 -18.25,-35.113 1.23,-7.91 6.58,-14.641 12.87,-19.598 9.42,-7.43 22.69,-13.48 34.56,-15.262 12.72,-1.91 24.41,-5.867 34.66,-13.898 13.26,-10.379 22.72,-21.34 40.29,-22.59 17.65,-1.262 32.28,9.438 32.96,27.668 0.24,6.539 -0.91,13.031 -2.05,19.473 -0.72,4.039 -0.94,7.199 -1.7,9.566"
         style="fill:#bfbeed;fill-opacity:1;fill-rule:nonzero;stroke:none"
         id="path150" /><path
         d="m 2737.47,833.359 c -0.01,1.403 0.02,2.789 0.11,4.192 0.93,14.347 -4.58,26.461 -9.82,39.73 -1.94,4.938 -4.07,10.129 -8.22,13.438 -9.48,7.543 -24.5,0.929 -30.51,-9.59 -2.79,-4.867 -4.33,-10.359 -6.83,-15.391 -4.76,-9.539 -14.31,-20.929 -25.83,-21.449 -15.48,-0.687 -32.87,4.633 -48.56,5.582 -6.11,0.367 -12.44,0.578 -18.11,-1.723 -13.37,-5.41 -17.23,-26.976 -12.46,-39.027 2.95,-7.43 9.65,-12.812 16.88,-16.262 10.84,-5.16 25.12,-8.129 37.1,-7.23 12.83,0.949 25.09,-0.34 36.87,-5.879 20.21,-9.539 43.7,-23.25 64.1,-4.66 5.46,4.961 8.12,12.398 8.76,19.75 1.12,13.012 -3.29,25.609 -3.48,38.519"
         style="fill:#bfbeed;fill-opacity:1;fill-rule:nonzero;stroke:none"
         id="path152" /><path
         d="m 2796.18,1429.14 c -9.48,-10.08 -46.64,7.12 -47.26,11.93 -44.5,32.78 -36.02,-102.27 -22.15,-155.68 7.43,-28.79 6.4,-58.98 11.14,-88.29 5.27,-32.66 12.97,-64.94 23.02,-96.48 2.17,-6.81 4.6,-13.84 9.63,-18.92 10.38,-10.5 27.47,-9.04 41.96,-6.3 12.57,2.37 26.59,6.27 32.53,17.59 3.66,6.97 3.34,15.27 3.08,23.12 -0.63,20.75 -1.29,42.17 2.35,62.65 3.87,21.85 7.76,43.7 11.63,65.55 3.38,19.12 6.78,38.27 8.23,57.62 2.62,35 -1.18,70.14 -7.41,104.57 -3.27,18.08 1.93,52.22 -23.92,55.26 -23.38,2.74 -36.5,-25.92 -42.83,-32.62"
         style="fill:#231869;fill-opacity:1;fill-rule:nonzero;stroke:none"
         id="path154" /><path
         d="m 2748.21,1127.47 -7.24,30.36 c 2.9,-10.01 5.27,-20.15 7.24,-30.36"
         style="fill:#6e4cb3;fill-opacity:1;fill-rule:nonzero;stroke:none"
         id="path156" /><path
         d="m 2765.87,1112.21 c 7.23,10.53 25.76,10.44 32.02,7.85 4.93,-2.05 39.88,19.16 50.1,27.25 -0.76,-0.61 0.85,-9.17 0.96,-10.45 0.31,-3.59 0.62,-7.19 0.89,-10.79 0.57,-7.09 1.07,-14.2 1.51,-21.3 0.84,-13.91 1.67,-27.82 1.67,-41.75 0.01,-100.77 -18.36,-188.598 -20.24,-198.75 -0.95,-5.079 -2,-10.411 -5.29,-14.399 -4.68,-5.652 -18.04,-11.359 -37.41,-8.41 -12.32,1.879 -22.71,10.098 -26.79,22.039 -3.58,10.461 -2.94,21.82 -2.25,32.859 2.69,43.539 5.63,86.75 4.62,130.401 -0.82,35.08 -3.55,70.37 -11.03,104.58 l 11.24,-19.13"
         style="fill:#231869;fill-opacity:1;fill-rule:nonzero;stroke:none"
         id="path158" /><path
         d="m 2645.07,1331.34 c -2.32,-42.59 -1.93,-85.34 1.49,-127.82 2.07,-25.65 5.19,-51.19 9.33,-76.54 2.07,-12.67 4.4,-25.3 6.99,-37.86 2.49,-12.08 4.88,-15.9 14.8,-22.5 21.28,-14.17 60.3,-13.37 76.4,10.72 17.33,25.91 11.46,67.13 17.54,96.62 8.82,42.86 38.31,73.71 52.52,114.28 5.1,14.55 7.55,28.78 8.24,43.1 h -187.31"
         style="fill:#3a2c99;fill-opacity:1;fill-rule:nonzero;stroke:none"
         id="path160" /><path
         d="m 2876.88,1533.61 c 0.95,7.58 2.08,15.15 3.41,22.69 6.34,36.12 17.15,71.39 21.7,107.84 3.53,28.3 6.07,63.59 -16.38,85.46 -3.66,3.57 -7.87,6.53 -12.31,9.03 -43.62,24.64 -85.34,-5.36 -126.24,-20.08 -26.85,-9.69 -52.61,-22.38 -76.67,-37.75 -8.37,-5.35 -16.95,-9.02 -22.59,-17.36 -5.97,-8.82 -9.16,-18.37 -9.78,-29.05 -0.68,-12.12 1.54,-24.19 3.56,-36.16 11.76,-69.69 16.93,-140.95 8.54,-211.12 -3.63,-30.21 -7.21,-112.75 -7.21,-112.75 10.05,-4.37 16.48,-8.5 65.22,-9.36 100.65,-1.8 156.32,23.57 162.12,28.87 5.79,5.3 3.76,17.51 3.96,24.83 0.64,21.9 0.21,43.81 -0.3,65.7 -1.01,43.07 -2.41,86.34 2.97,129.21"
         style="fill:#dadaf9;fill-opacity:1;fill-rule:nonzero;stroke:none"
         id="path162" /><path
         d="m 2663.84,1068.98 c 1.33,-22.11 2.52,-44.21 3.49,-66.34 0.78,-17.492 1.42,-34.992 1.89,-52.492 0.36,-13.488 0.61,-26.968 0.74,-40.449 0.65,-73.82 -7.57,-90.211 26.96,-100.668 7.74,-2.332 16,-3.191 23.89,-1.449 22.79,5.02 27.21,24.809 30.64,49.418 1.92,13.82 3.06,30.52 3.87,44.531 0.69,11.828 1.24,23.688 1.73,35.539 0.71,16.032 1.29,32.059 1.87,48.11 0.74,21.15 1.47,42.31 2.14,63.47 0.9,27.05 3.92,54.61 4.8,81.66 0.12,3.93 -2.26,8.07 -5.33,10.22 -4,2.78 -86.25,-24.92 -94.77,-33.94 0,0 -3.56,-10.3 -1.92,-37.61"
         style="fill:#3a2c99;fill-opacity:1;fill-rule:nonzero;stroke:none"
         id="path164" /><path
         d="m 2658.63,1718.19 c -26.8,3.98 -90.74,16.12 -104.8,24.66 -36.7,22.32 -75.54,67.24 -91.8,89.08 -5.48,7.37 -50.81,-21.76 -50.96,-28.31 -0.12,-5.38 35.23,-60.39 40.75,-68.47 28.2,-41.3 55.37,-63.79 64.78,-68.96 24.88,-13.65 123.77,-54.5 129.92,-55.87 17.78,-3.96 49.14,13.43 56.26,25.97 45.6,80.2 -33.33,80.29 -44.15,81.9"
         style="fill:#f4f4fa;fill-opacity:1;fill-rule:nonzero;stroke:none"
         id="path166" /><path
         d="m 2736.15,1774.06 c -1.57,10.82 -9.74,8.3 -5.61,18.11 3.5,8.31 8.83,15.97 15.97,21.5 7.14,5.52 16.17,8.79 25.18,8.29 3.1,-0.18 5.18,-1.95 8.26,-1.96 8.51,-0.03 17.06,1.6 25.55,0.37 8.45,-1.23 16.26,-1.85 16.26,-11.39 -0.01,-12.71 -0.59,-24.94 3.48,-37.43 2.17,-6.68 5.46,-13.13 6.05,-20.12 1.14,-13.76 -8.91,-26.59 -21.34,-32.6 -15.28,-7.39 -32.56,-6.71 -48.81,-4.35 -8.16,1.18 -19.65,2.8 -24.43,10.58 -3.6,5.85 -2.06,13.54 -1.29,19.95 1.17,9.71 2.16,19.3 0.73,29.05"
         style="fill:#f9d5c3;fill-opacity:1;fill-rule:nonzero;stroke:none"
         id="path168" /><path
         d="m 2754.49,1936.52 35.41,-20.59 c -2.51,1.46 -5.96,1.27 -9.77,-0.94 l -35.43,20.59 c 3.8,2.21 7.27,2.39 9.79,0.94"
         style="fill:#3a2c99;fill-opacity:1;fill-rule:nonzero;stroke:none"
         id="path170" /><g
         id="g172"><g
           id="g174"
           clip-path="url(#clipPath178)"><path
             d="m 2780.13,1914.99 -35.43,20.59 c 3.8,2.21 7.27,2.39 9.79,0.94 l 35.41,-20.59 c -2.51,1.46 -5.96,1.27 -9.77,-0.94"
             style="fill:#7f89a6;fill-opacity:1;fill-rule:nonzero;stroke:none"
             id="path180" /></g></g><path
         d="m 2699.66,1912.24 c -5.13,-6.26 -9.16,-13.29 -10.38,-21.53 -2.74,-18.38 4.65,-37.27 0.66,-55.5 -3.86,-17.67 3.71,-57.78 38.55,-68.06 17.62,-5.2 52.4,0.89 63.59,6.25 15.01,7.19 24.92,21.74 33.81,35.83 72.76,115.53 -76.88,163.06 -126.23,103.01"
         style="fill:#f9d5c3;fill-opacity:1;fill-rule:nonzero;stroke:none"
         id="path182" /><path
         d="m 2859.04,1861.02 c -0.47,-3.41 -0.95,-6.85 -1.6,-10.23 -0.5,-2.57 -1.1,-5.11 -1.9,-7.6 -0.68,-2.16 -1.49,-4.25 -2.43,-6.28 -3.45,-7.74 -8.38,-14.82 -13.27,-21.78 -6.75,-9.63 -13.99,-19.64 -24.61,-24.75 -4.58,-2.22 -9.59,-3.39 -14.56,-4.48 -13.74,-3.05 -34.07,-3.69 -44.64,7.72 -4.71,5.06 -6.61,12.24 -7.47,18.96 -0.83,6.62 -1.05,12.26 -2.85,18.92 -0.43,1.63 -0.87,3.25 -1.37,4.87 -0.8,2.59 -1.72,5.15 -3.06,7.5 -2.18,3.81 -5.49,7.18 -9.7,8.45 -7.2,2.19 -15.85,-1.89 -22.11,2.27 -3.23,2.16 -4.87,5.95 -6.32,9.52 -1.46,3.55 -2.76,7.5 -4.21,11.39 -1.93,5.14 -4.15,10.2 -7.33,14.24 -1.7,2.13 -3.68,4.08 -5.02,6.46 -1.85,3.25 -3.98,6.28 -4.12,9.98 -0.7,16.93 13.24,33.65 24.92,44.43 6.29,5.79 13.25,11.01 21.1,14.4 6.9,2.96 14.35,4.43 21.75,5.48 22,3.17 45.55,2.65 64.96,-8.15 5.13,-2.85 10.07,-6.6 12.56,-11.94 0.55,-1.18 0.98,-2.46 1.83,-3.48 1.12,-1.33 2.84,-2.03 4.44,-2.78 5.28,-2.46 9.61,-5.57 13.13,-9.2 17.81,-18.32 15.25,-49.56 11.88,-73.92"
         style="fill:#3a2c99;fill-opacity:1;fill-rule:nonzero;stroke:none"
         id="path184" /><path
         d="m 2739.47,1860.22 c 13.94,1.18 17.79,-16.09 8.43,-29.65 -2.74,-3.96 -7.62,-7.52 -11.23,-10.69 -24.66,-21.74 -31.33,1.22 -23.52,8.6 18.18,17.18 8.76,30.26 26.32,31.74"
         style="fill:#f9d5c3;fill-opacity:1;fill-rule:nonzero;stroke:none"
         id="path186" /><path
         d="m 2735.69,1833.81 c 1.58,1.49 17.35,11.16 6.39,17.38 -3.04,1.72 -6.33,-0.96 -6.73,-4.16 -0.22,-1.65 0.33,-3.33 0.1,-4.98 -0.12,-0.98 -0.52,-1.91 -1.02,-2.76 -1.37,-2.32 -6.16,-4.61 -5.16,-7.97 0.9,-2.96 5.52,1.63 6.42,2.49"
         style="fill:#ffbfa2;fill-opacity:1;fill-rule:nonzero;stroke:none"
         id="path188" /><path
         d="m 2661.31,2132.51 c -1.48,1.25 -2.75,2.84 -2.56,4.62 0.28,2.57 3.83,3.75 5.99,4.06 3.61,0.53 7.35,-0.44 10.68,-1.82 4.38,-1.84 8.46,-4.45 12.98,-5.87 1.26,-0.39 2.61,-0.69 3.89,-0.37 1.28,0.32 2.44,1.44 2.39,2.77 -0.07,2.42 -4.04,4.44 -5.73,5.69 -2.72,2.02 -5.59,3.84 -8.59,5.44 -4.54,2.42 -10.26,5.36 -15.44,6.03 -5.69,0.75 -11.88,-0.37 -17.72,0.17 -1.15,0.1 -2.36,0.24 -3.4,0.75 -1.69,0.81 -2.79,2.45 -3.73,4.06 -1.01,1.75 -1.93,3.56 -2.75,5.4 l -0.22,1.09 0.84,0.96 c 6.51,4.36 14.81,6.7 22.12,9.4 5.26,1.92 10.54,3.77 15.87,5.53 1.27,0.42 2.58,0.84 3.9,0.68 1.38,-0.17 2.6,-0.94 3.82,-1.6 3.69,-2.04 7.76,-3.27 11.68,-4.84 13.62,-5.5 25.1,-15.22 36.04,-25.03 7.3,-6.56 14.8,-13.11 21.83,-19.9 5.67,-5.5 2.21,-16.2 -2.91,-20.85 -1.13,-1.04 -2.38,-1.95 -3.72,-2.69 -5.14,-2.87 -11.04,-2.7 -16.6,-1.25 -2.79,0.74 -15.54,5.48 -19.47,6.59 -16.18,4.56 -32.27,10.19 -46.59,19.13 l -2.6,1.85"
         style="fill:#f9d5c3;fill-opacity:1;fill-rule:nonzero;stroke:none"
         id="path190" /><path
         d="m 2969.11,2098.37 c 41.88,27.27 58.09,71.24 42.84,85.78 -26.12,24.9 -48.84,8.26 -108.36,-43.73 -1.31,-1.14 -2.63,-2.28 -3.95,-3.42 -14.6,-12.5 -29.14,-25.1 -42.58,-38.87 -7.54,-7.72 -14.8,-15.8 -21.18,-24.54 -1.45,-2.02 -2.89,-4.06 -4.22,-6.16 -1.37,-2.18 -1.71,-4.75 -2.48,-7.2 -1.95,-6.24 -3.65,-12.64 -3.79,-19.21 -0.18,-8.14 2.38,-16.73 8.57,-22.02 7.07,-6.05 17.62,-6.63 26.45,-3.68 9.95,3.32 45.56,10.2 71.81,35.7 17.14,16.65 -17.19,12.14 36.89,47.35"
         style="fill:#d3d3f5;fill-opacity:1;fill-rule:nonzero;stroke:none"
         id="path192" /><path
         d="m 2738.7,2129.3 c 2.53,3.71 4.91,6.18 9.35,5.18 4.43,-1 8.7,-2.88 12.7,-4.99 8.41,-4.42 15.9,-10.29 23.64,-15.72 10.19,-7.16 20.58,-12.97 31.27,-19.31 7.7,-4.58 15.22,-9.43 22.45,-14.7 13.45,-9.79 43.19,-32.24 29.05,-51.95 -5.1,-7.11 -17.01,-13.96 -26.32,-12.72 -7.07,0.95 -15.51,9.35 -20.99,13.32 -12.73,9.22 -25.17,18.85 -37.6,28.47 -15.18,11.74 -29.63,25.21 -44.99,37.02 -6.21,4.78 -10.49,5.32 -8.4,14.35 1.65,7.09 5.29,13.89 9.16,20.01 l 0.68,1.04"
         style="fill:#d3d3f5;fill-opacity:1;fill-rule:nonzero;stroke:none"
         id="path194" /><path
         d="m 3155.1,2158.24 c 0.03,8.38 0.62,16.79 0.88,25.18 0.54,17.42 0.42,34.96 -2.62,52.17 -3.62,20.55 -11.39,40.36 -22.69,57.9 -1.71,2.65 -3.52,5.27 -5.84,7.4 -5.84,-0.84 -13.24,1.08 -18.48,-1.71 -7.78,-4.14 -13.31,-17.71 -16.69,-25.32 -9.12,-20.58 -11.94,-44.02 -7.34,-66.1 1.78,-8.51 5.59,-15.02 8.49,-22.93 3.52,-9.59 6.76,-19.11 12.37,-27.75 6.93,-10.66 17.34,-19.69 29.83,-22.11 6.26,-1.21 13.48,-0.41 17.81,4.28 4.73,5.13 4.26,12.16 4.28,18.59 v 0.4"
         style="fill:#302534;fill-opacity:1;fill-rule:nonzero;stroke:none"
         id="path196" /><path
         d="m 3151,2162.27 c -19,8.64 -53.78,25.66 -72.52,38.48 -2.74,1.87 -15.34,-6.39 -18.59,-5.7 -24.27,5.14 -50.11,3.99 -72.62,-5.92 l -0.75,-0.36 v -148.99 h 142.79 l 21.69,122.49"
         style="fill:#ffbfa2;fill-opacity:1;fill-rule:nonzero;stroke:none"
         id="path198" /><path
         d="m 3097.2,2173.65 c 0,0 -88.87,-44.67 -84.59,4.67 5.95,68.76 10.33,76.43 41.15,85.3 8.44,2.44 11.76,9.56 20.51,9.21 31.9,-1.28 18.52,-17.93 16.6,-30 -5.72,-35.78 6.89,-50.23 6.33,-69.18"
         style="fill:#ffbfa2;fill-opacity:1;fill-rule:nonzero;stroke:none"
         id="path200" /><path
         d="m 3016.94,2200.28 -1.2,-0.05 c 3.54,1.08 5.57,0.16 1.2,0.05"
         style="fill:#e3e2f2;fill-opacity:1;fill-rule:nonzero;stroke:none"
         id="path202" /><path
         d="m 3196.72,2110.99 c 0.18,-2.73 0.2,-5.58 0.08,-8.55 -0.34,-8.25 -2.51,-16.2 -4.32,-24.19 -2.14,-9.46 -6.68,-17.99 -11.78,-26.16 -5.38,-8.65 -9.79,-17.46 -15.14,-26.15 -5.41,-8.8 -8.21,-17.71 -12.48,-27.04 -9.55,-20.87 -18.1,-42.48 -21.91,-65.22 -3.06,-18.29 -3.06,-36.79 -2.04,-55.18 0.57,-8.75 2.04,-17.71 1.58,-26.34 -0.11,-2.39 0.46,-6.71 0,-8.75 -0.68,-3.18 -2.27,-4.31 -5.22,-6.58 -15.89,-12.37 -34.74,-19.53 -54.26,-22.93 -21.02,-3.52 -43.72,-2.05 -63.93,1.36 -6.01,1.02 -11.69,2.16 -17.14,3.4 -24.08,5.68 -42.12,12.95 -45.2,15.22 -4.42,3.4 -2.49,2.39 1.26,34.52 15.44,131.92 -42.8,134.3 -20.1,203.34 3.85,11.81 11.81,22.93 16.69,34.74 18.05,43.26 6.7,91.39 72.89,93.79 -4.08,-1.26 -42.4,-65.8 3.72,-84.73 29.74,-12.2 88.62,20.34 102.36,60.76 19.6,-9.17 37.4,-14.99 53.73,-27.05 13.94,-10.28 20.18,-22.46 21.21,-38.26"
         style="fill:#f4f4fa;fill-opacity:1;fill-rule:nonzero;stroke:none"
         id="path204" /><path
         d="m 3074.86,1230.92 c -2.28,-3.59 -3.76,-7.71 -5.19,-11.74 -5.17,-14.6 -10.35,-29.2 -15.52,-43.8 -4.58,-12.9 -6.08,-26.71 -7.71,-40.36 -1.28,-10.68 -5.22,-23.85 2.27,-32.73 7.45,-8.84 20.95,-10.97 31.78,-6.93 10.83,4.03 19.1,13.23 24.42,23.49 6.43,12.42 7.76,25.24 9.8,38.82 2.24,14.86 4.48,29.7 6.72,44.55 0.91,6.06 1.82,12.3 0.39,18.25 -3.86,16.03 -31.89,26.8 -44.03,14.21 -1.11,-1.16 -2.08,-2.42 -2.93,-3.76"
         style="fill:#19121b;fill-opacity:1;fill-rule:nonzero;stroke:none"
         id="path206" /><path
         d="m 2954.95,1201.25 c -0.16,7.67 3.35,15.02 7.79,21.3 7.09,10.03 16.52,18.05 24.26,27.53 3.77,4.62 6.12,9.5 8.99,14.56 3.1,5.45 8.95,10.16 13.03,14.99 l 2,2.22 c 6.88,7.44 16,13.29 25.89,15.75 8.25,2.04 21.52,2.62 27.33,-4.51 8.37,-10.28 6.82,-21.52 3.57,-33.25 -3.33,-11.97 -13.88,-15.75 -22.22,-24.07 -4.26,-4.26 -7.27,-9.1 -11.62,-13.39 -5.64,-5.56 -10.82,-11.56 -16.33,-17.25 -7.52,-7.78 -15.82,-15.11 -25.77,-19.37 -14.3,-6.12 -36.05,-4.85 -36.9,14.94 l -0.02,0.55"
         style="fill:#19121b;fill-opacity:1;fill-rule:nonzero;stroke:none"
         id="path208" /><path
         d="m 2921.48,1509.09 c 7.67,-17.87 61.9,-151.45 74.08,-195.15 5.4,-19.37 11,-44.77 -2.71,-61.99 -3.05,-3.82 -6.49,-7.48 -8.35,-12 -1.87,-4.51 -1.76,-10.29 1.75,-13.69 3.16,-3.07 8.24,-3.36 12.39,-1.87 4.15,1.48 7.57,4.43 10.89,7.32 10.3,8.97 20.6,18.02 29.35,28.49 4.95,5.94 9.39,12.34 12.91,19.25 3.59,7.05 6.8,12.78 3.17,20.01 -7.73,15.44 -11.01,33.36 -12.34,50.43 -0.84,10.8 -0.84,21.65 -0.49,32.47 0.33,9.95 1.8,20.14 1.18,30.04 -1.27,20.23 -2.08,40.71 -7.49,60.36 -3.57,12.96 -9.37,25.53 -17.85,36.02 -8.73,10.79 -20.77,17.38 -30.41,27.12 -5.74,5.8 -13.24,11.67 -21.87,10.22 l -44.21,-37.03"
         style="fill:#ffbfa2;fill-opacity:1;fill-rule:nonzero;stroke:none"
         id="path210" /><path
         d="m 3158.48,1736.97 c -0.43,25.41 -1.06,39.65 -4.58,64.84 -2.26,16.18 -15.11,60.4 -15.11,60.4 0,0 -66,-28.33 -86.84,-30.39 -25.37,-2.5 -35.5,-3.15 -55.42,0.65 -9.06,1.74 -9.77,1.29 -9.69,-7.74 0.11,-12.57 5.05,-26.81 7.47,-39.17 9.43,-48.04 23.82,-96.03 31.32,-144.34 6.11,-39.33 4.37,-81.15 9.78,-121.14 2.29,-16.97 11.41,-34.03 19.09,-48.61 8.94,-16.97 17.94,-26.44 34.48,-24.6 7.5,0.83 20.43,9.35 24.57,15.7 2.66,4.08 3.24,12.13 4.76,16.93 4.39,13.84 8.1,27.91 11.15,42.11 0.63,2.96 1.2,5.94 1.8,8.79 l 0.17,1.01 c 7.48,37.81 11.69,76.57 17.37,114.65 4.43,29.74 10.19,60.28 9.68,90.91"
         style="fill:#f9d5c3;fill-opacity:1;fill-rule:nonzero;stroke:none"
         id="path212" /><path
         d="m 3030.37,1546.35 c 3.49,-46.89 22.5,-80.86 30.38,-127.15 8.68,-50.98 9.69,-102.82 10.09,-154.4 0.16,-22 1.68,-45.56 -1.98,-67.27 -2.27,-13.52 -14.31,-36.05 -3.49,-48.17 3.89,-4.35 9.7,-6.67 15.51,-7.14 5.01,-0.41 10.26,0.53 14.39,3.4 7.2,5 8.59,17.9 11.19,25.8 9.1,27.72 14.14,56.16 21.81,84.22 8.46,30.92 21.5,60.61 26.22,92.5 2.71,18.34 2.41,36.99 2.11,55.53 -0.6,36.56 -13.04,86.73 -27.94,119.96 -3.59,8.02 -4.63,-1.54 -13.28,0.03 l -85.01,22.69"
         style="fill:#f9d5c3;fill-opacity:1;fill-rule:nonzero;stroke:none"
         id="path214" /><path
         d="m 2906.52,1546.55 c -3.41,-16.8 -4.67,-32.28 7.94,-49.52 14.59,-19.96 39.33,-30.5 63.9,-33.35 24.56,-2.84 49.34,1.1 73.75,5.02 27.71,4.46 55.43,8.92 83.14,13.38 6.4,1.03 13.38,2.37 17.55,7.34 4.51,5.39 4.22,13.19 3.69,20.2 -2.55,33.61 -4.95,66.1 -3.26,99.43 1.92,37.94 8.25,76.46 8.25,114.4 1.8,35.81 -0.06,72.88 -12.92,106.73 -2.89,7.6 -6.99,30.08 -14.93,33.41 -12.32,5.18 -35.96,-11.06 -47.44,-15.03 -15.66,-5.4 -71.66,-15.83 -84.44,-16.49 -25.09,-1.29 -29.88,19.66 -61.38,19.42 -8.76,-0.06 -14.08,-62.33 -15.38,-70.72 -3.31,-21.37 -6.04,-42.85 -7.52,-64.43 -1.36,-19.93 1.5,-38.37 1.19,-58.04 -0.46,-29.86 -2.56,-60.69 -7.66,-90.13 -1.32,-7.57 -3.08,-14.7 -4.48,-21.62"
         style="fill:#3a2c99;fill-opacity:1;fill-rule:nonzero;stroke:none"
         id="path216" /><path
         d="m 2940.35,1851.49 c 3.28,11.2 6.37,21.38 6.37,21.38 0,0 40.45,-35.78 94.71,-31.8 51.99,3.82 89.24,33.8 87.76,36.58 3.35,-5.04 6.53,-10.2 9.6,-15.44 -56.23,-48.78 -139.08,-47.43 -198.44,-10.72"
         style="fill:#231869;fill-opacity:1;fill-rule:nonzero;stroke:none"
         id="path218" /><path
         d="m 3064.22,2216.34 c 2.44,1.58 4.82,3.3 7.11,5.21 1.06,0.89 2.09,1.81 3.1,2.76 8.78,8.27 14.14,19.56 20.83,29.43 6.76,9.95 10.48,23.02 12.2,34.81 3.51,24.01 -2.66,49.1 -19.66,66.88 -19.06,19.94 -49.42,28.26 -75.99,20.84 -7.2,-2.02 -14.06,-5.06 -20.71,-8.45 -5.74,-2.94 -11.46,-6.2 -15.85,-10.93 -2.87,-3.11 -5.1,-6.76 -7.15,-10.48 -3.65,-6.67 -5.58,-13.26 -7.66,-20.52 -1.14,-4 -0.75,-8.24 -0.75,-12.35 0,-7.3 0.51,-14.35 1.93,-21.53 1.17,-5.9 1.98,-11.85 2.12,-17.84 0.14,-6.07 -2.84,-11.25 -4.76,-16.88 -1.18,-3.46 -3.22,-8.85 -2.18,-12.32 1.13,-3.8 5.23,-6.84 7.13,-10.3 2.05,-3.71 2.67,-6.47 2.83,-10.78 0.11,-2.77 1.05,-4.56 2.12,-7.01 0.91,-2.06 0.41,-3.57 0.72,-5.64 0.37,-2.44 2.26,-4.57 3.14,-6.84 0.99,-2.56 1.82,-5.06 3.16,-7.49 7.91,-14.3 19.44,-15.24 33.71,-9.7 11.18,4.33 21.42,9.94 31.63,16.07 7.63,4.6 15.59,8.25 22.98,13.06"
         style="fill:#f9d5c3;fill-opacity:1;fill-rule:nonzero;stroke:none"
         id="path220" /><path
         d="m 3133.25,2313.05 c -0.39,6.63 -1.6,13.22 -3.63,19.56 -1.96,6.12 -4.68,11.99 -8.06,17.46 -1.73,2.8 -3.58,5.71 -5.78,8.16 -2,2.24 -6.25,4.58 -7.34,7.31 -0.14,0.35 -11.55,28.63 -64.13,28.62 -19.81,-0.01 -39.2,-7.22 -55.96,-17.6 -11.89,-7.35 -19.18,-13.92 -24.86,-26.96 -5.63,-12.89 -8.43,-27 -8.03,-41.06 0.07,-2.12 0.28,-4.44 1.74,-5.98 2.19,-2.32 5.96,-1.77 9.05,-0.97 11.65,2.99 21.36,6.84 31.64,12.72 4.76,2.73 17.37,8.57 22.96,6.02 4.62,-2.1 1.17,-14.04 2.91,-19.35 2.2,-6.73 6.48,-12.8 12.31,-16.84 5.19,-3.6 11.3,-5.62 16.86,-8.63 5.54,-3.02 10.84,-7.5 12.36,-13.63 1.6,-6.52 -0.6,-15.24 5.18,-18.65 6.88,-4.08 25.81,11.69 24.83,10.04 -4.56,-7.73 -3.92,-6.39 -5.59,-20.03 21.8,12.95 38.52,36.29 42.62,61.62 0.97,6 1.29,12.12 0.92,18.19"
         style="fill:#3e3544;fill-opacity:1;fill-rule:nonzero;stroke:none"
         id="path222" /><path
         d="m 3088.39,2279.19 c 13.82,0.88 17.25,-16.29 7.71,-29.5 -2.78,-3.86 -7.69,-7.27 -11.33,-10.33 -24.84,-20.99 -30.96,1.85 -23.07,9 18.35,16.6 9.3,29.73 26.69,30.83"
         style="fill:#f9d5c3;fill-opacity:1;fill-rule:nonzero;stroke:none"
         id="path224" /><path
         d="m 3079.43,2247.8 c 1.59,1.45 17.38,10.68 6.67,17.05 -2.95,1.77 -6.27,-0.82 -6.75,-3.95 -0.24,-1.64 0.26,-3.31 0.02,-4.94 -0.16,-0.96 -0.56,-1.87 -1.07,-2.7 -1.42,-2.27 -6.19,-4.45 -5.27,-7.78 0.82,-2.96 5.48,1.49 6.4,2.32"
         style="fill:#ffbfa2;fill-opacity:1;fill-rule:nonzero;stroke:none"
         id="path226" /><path
         d="m 3158.63,1916.11 c -1.38,-1.4 -2.89,-2.67 -4.85,-3.58 -2.91,-1.35 -6.3,-1.78 -9.34,-0.77 -3.91,1.3 -6.69,4.69 -9.34,7.84 -4.29,5.1 -8.83,10 -13.59,14.67 -1.24,1.22 -2.73,2.5 -4.47,2.35 -1.56,-0.14 -2.81,-1.51 -3.25,-3.01 -0.29,-1.01 0.56,-5.94 -0.07,-6.08 -1.29,-0.32 -4.32,1.51 -5.58,1.93 -2.2,0.73 -4.43,1.38 -6.68,1.96 -4.62,1.19 -9.32,2.07 -14.07,2.64 -9.35,1.1 -18.84,0.98 -28.16,-0.42 l -2.38,-0.71 -1.13,-2.09 c 0.14,-0.9 0.99,-1.5 1.8,-1.95 6.2,-3.45 13.44,-4 20.22,-5.65 2.92,-0.71 5.44,-2.17 8.34,-3.02 3.74,-1.08 7.4,-2.48 10.91,-4.16 -11.44,2.61 -23.15,4.01 -34.89,4.19 -2.41,0.04 -8.06,-0.13 -9.53,-2.43 -1.99,-3.13 3.18,-5.16 5.26,-5.92 6.37,-2.29 12.73,-4.58 19.09,-6.87 -6.99,2.51 -14.81,3.19 -22.16,2.4 -3.61,-0.39 -6.22,-0.46 -5.26,-4.78 0.63,-2.86 2.9,-5.28 5.83,-5.78 4.43,-0.77 8.81,-1.39 13.23,-2.36 6.14,-1.33 12.23,-3.04 17.99,-5.59 -4.95,-0.35 -9.96,-0.71 -14.67,-2.26 -3.87,-1.27 -8.42,-3.65 -10.62,-7.26 -1.45,-2.39 -1.75,-7.14 1.92,-7.45 3.9,-0.32 7.84,-0.39 11.75,-0.22 8.25,0.37 16.55,1.57 24.78,0.36 11.94,-1.77 22.72,-8.56 34.7,-10.13 10.79,-1.42 21.61,1.57 31.24,6.31 8.98,4.42 15.59,12.25 24.03,17.52 5.12,3.19 10.66,4.97 14.88,9.31 4.7,4.83 9.22,9.82 13.57,14.97 2.08,2.48 4.22,5.22 4.42,8.46 0.29,4.49 -3.22,8.29 -6.89,10.9 -4.87,3.47 -10.49,5.86 -16.35,7.07 -5.48,1.13 -11.59,2.27 -16.85,-0.2 -6.9,-3.26 -12.97,-10.17 -18.78,-15.06 -1.89,-1.59 -3.38,-3.45 -5.05,-5.13"
         style="fill:#f9d5c3;fill-opacity:1;fill-rule:nonzero;stroke:none"
         id="path228" /><path
         d="m 3178.36,2148.4 c -1.32,0.98 -2.64,2.01 -3.95,3.07 -4.25,3.47 -9.94,6.28 -15.1,4.4 -4.02,-1.46 -6.58,-5.37 -8.37,-9.25 -4.66,-10.15 -5.89,-21.51 -6.67,-32.64 -0.8,-11.33 -1.18,-22.79 0.75,-33.99 1.73,-10.02 5.67,-23.47 14.15,-29.89 8.16,-6.18 16,-12.94 23.94,-19.53 16,-13.29 32.25,-26.28 48.79,-38.89 7.66,-5.84 16.18,-14.24 25.23,-17.92 25.64,-10.42 50.66,3.03 55.11,22.09 1.68,7.22 -1.18,15.16 -4.32,21.57 -4.58,9.35 -12.44,16.44 -19.22,24.06 -7.9,8.89 -15.92,17.7 -24.01,26.42 -21.45,23.12 -43.22,46.59 -67.53,66.76 -6.07,5.04 -12.55,9.08 -18.8,13.74"
         style="fill:#f4f4fa;fill-opacity:1;fill-rule:nonzero;stroke:none"
         id="path230" /><path
         d="m 3183.07,1882.08 c 11.47,-3.22 19.47,5.47 27,11.39 17.65,13.85 83.85,59.23 101.12,98.96 4.16,9.56 -19.65,18.65 -30.73,28.32 -7.58,6.61 -20.58,3.14 -28.99,0.43 -10.46,-3.36 -92.21,-98.11 -93.71,-103.38 -3.23,-11.31 16.43,-33.22 25.31,-35.72"
         style="fill:#f4f4fa;fill-opacity:1;fill-rule:nonzero;stroke:none"
         id="path232" /><g
         id="g234"><g
           id="g236"
           clip-path="url(#clipPath240)"><path
             d="m 2260.21,3434.53 h 570.188 v 392.023 H 2260.21 Z"
             style="fill:#f2f2fc;fill-opacity:1;fill-rule:nonzero;stroke:none"
             id="path242" /></g></g><path
         d="m 2248.61,3427.67 -0.28,100.23 11.88,6.87 0.29,-100.24 -11.89,-6.86"
         style="fill:#bfbeed;fill-opacity:1;fill-rule:nonzero;stroke:none"
         id="path244" /><path
         d="m 2246.7,3426.57 -0.29,100.22 1.92,1.11 0.28,-100.23 -1.91,-1.1"
         style="fill:#e9e9f7;fill-opacity:1;fill-rule:nonzero;stroke:none"
         id="path246" /><path
         d="m 1493.11,1916.96 c -27.71,0 -46.79,21.94 -46.87,59.96 l -2.58,901.04 -0.24,87.83 c -0.13,53.71 37.6,119.12 84.33,146.07 l 718.66,414.93 0.29,-100.22 -653.49,-377.32 c -46.74,-26.94 -84.46,-92.35 -84.34,-146.07 l 0.24,-87.82 2.56,-895.42 c -6.5,-2 -12.72,-2.98 -18.56,-2.98"
         style="fill:#5549aa;fill-opacity:1;fill-rule:nonzero;stroke:none"
         id="path248" /><path
         d="m 2263.85,2251.23 -0.28,100.23 485.3,280.17 c 46.73,27.01 84.52,92.36 84.33,146.08 l -2.57,900.98 -0.23,82.3 c 6.49,1.99 12.7,2.96 18.52,2.96 27.73,0 46.83,-21.95 46.92,-59.98 l 0.24,-87.89 2.57,-900.98 c 0.19,-53.72 -37.6,-119.06 -84.33,-146.07 l -550.47,-317.8"
         style="fill:#f2f2fc;fill-opacity:1;fill-rule:nonzero;stroke:none"
         id="path250" /><path
         d="m 2251.97,2244.36 -0.29,100.23 11.89,6.87 0.28,-100.23 -11.88,-6.87"
         style="fill:#bfbeed;fill-opacity:1;fill-rule:nonzero;stroke:none"
         id="path252" /><path
         d="m 2250.19,2243.34 -0.29,100.22 1.78,1.03 0.29,-100.23 -1.78,-1.02"
         style="fill:#e9e9f7;fill-opacity:1;fill-rule:nonzero;stroke:none"
         id="path254" /><path
         d="m 1558.56,1854.36 c -27.71,0 -46.79,21.93 -46.87,59.95 l -0.02,5.63 c 6.25,1.92 12.76,4.79 19.45,8.66 l 718.78,414.96 0.29,-100.22 -653.62,-377.35 c -13.65,-7.89 -26.57,-11.63 -38.01,-11.63"
         style="fill:#5549aa;fill-opacity:1;fill-rule:nonzero;stroke:none"
         id="path256" /><path
         d="m 2263.57,2351.46 -3.07,1083.07 550.45,317.83 c 6.69,3.85 13.21,6.72 19.45,8.63 l 0.23,-82.3 2.57,-900.98 c 0.19,-53.72 -37.6,-119.07 -84.33,-146.08 l -485.3,-280.17"
         style="fill:#e8e8f9;fill-opacity:1;fill-rule:nonzero;stroke:none"
         id="path258" /><path
         d="m 2251.68,2344.59 -3.07,1083.08 11.89,6.86 3.07,-1083.07 -11.89,-6.87"
         style="fill:#bfbeed;fill-opacity:1;fill-rule:nonzero;stroke:none"
         id="path260" /><path
         d="m 2249.9,2343.56 -3.2,1083.01 1.91,1.1 3.07,-1083.08 -1.78,-1.03"
         style="fill:#e1e0f5;fill-opacity:1;fill-rule:nonzero;stroke:none"
         id="path262" /><path
         d="m 1511.67,1919.94 -2.56,895.42 -0.24,87.82 c -0.12,53.72 37.6,119.13 84.34,146.07 l 653.49,377.32 3.2,-1083.01 -718.78,-414.96 c -6.69,-3.87 -13.2,-6.74 -19.45,-8.66"
         style="fill:#6a60b7;fill-opacity:1;fill-rule:nonzero;stroke:none"
         id="path264" /><path
         d="m 2933.28,3709.54 21.27,-12.36 c -15.16,8.81 -36.16,7.57 -59.34,-5.81 l -21.26,12.36 c 23.17,13.38 44.17,14.62 59.33,5.81"
         style="fill:#f4f4fa;fill-opacity:1;fill-rule:nonzero;stroke:none"
         id="path266" /><g
         id="g268"><g
           id="g270"
           clip-path="url(#clipPath274)"><path
             d="m 2895.21,3691.37 -21.26,12.36 c 23.17,13.38 44.17,14.62 59.33,5.81 l 21.27,-12.36 c -15.16,8.81 -36.16,7.57 -59.34,-5.81"
             style="fill:#fe8786;fill-opacity:1;fill-rule:nonzero;stroke:none"
             id="path276" /></g></g><path
         d="m 1639.08,1826.54 -21.27,12.37 c -14.96,8.69 -24.24,27.17 -24.31,53.45 l 21.27,-12.36 c 0.07,-26.28 9.35,-44.76 24.31,-53.46"
         style="fill:#bfbeed;fill-opacity:1;fill-rule:nonzero;stroke:none"
         id="path278" /><g
         id="g280"><g
           id="g282"
           clip-path="url(#clipPath286)"><path
             d="m 1639.08,1826.54 -21.27,12.37 c -14.96,8.69 -24.24,27.17 -24.31,53.45 l 21.27,-12.36 c 0.07,-26.28 9.35,-44.76 24.31,-53.46"
             style="fill:#bfbeed;fill-opacity:1;fill-rule:nonzero;stroke:none"
             id="path288" /></g></g><path
         d="m 1612,2854.53 -21.26,12.36 0.24,-86.63 21.27,-12.28 -0.25,86.55"
         style="fill:#ff6661;fill-opacity:1;fill-rule:nonzero;stroke:none"
         id="path290" /><path
         d="m 1590.98,2780.26 2.52,-887.9 21.27,-12.36 -2.52,887.98 -21.27,12.28"
         style="fill:#bfbeed;fill-opacity:1;fill-rule:nonzero;stroke:none"
         id="path292" /><path
         d="m 1695.13,2998.5 -21.27,12.36 1200.09,692.87 21.26,-12.36 -1200.08,-692.87"
         style="fill:#fe8786;fill-opacity:1;fill-rule:nonzero;stroke:none"
         id="path294" /><path
         d="m 1612,2854.53 -21.26,12.36 c -0.15,52.92 37.07,117.38 83.12,143.97 l 21.27,-12.36 c -46.06,-26.59 -83.27,-91.06 -83.13,-143.97"
         style="fill:#f4f4fa;fill-opacity:1;fill-rule:nonzero;stroke:none"
         id="path296" /><g
         id="g298"><g
           id="g300"
           clip-path="url(#clipPath304)"><path
             d="m 1612,2854.53 -21.26,12.36 c -0.15,52.92 37.07,117.38 83.12,143.97 l 21.27,-12.36 c -46.06,-26.59 -83.27,-91.06 -83.13,-143.97"
             style="fill:#ff6661;fill-opacity:1;fill-rule:nonzero;stroke:none"
             id="path306" /></g></g><path
         d="m 2981.63,2669.17 c 0.18,-52.93 -37.06,-117.33 -83.11,-143.95 L 1698.43,1832.38 c -46.05,-26.62 -83.53,-5.31 -83.65,47.62 l -2.53,887.98 -0.25,86.55 c -0.11,52.94 37.06,117.4 83.12,143.95 l 1200.08,692.91 c 46.05,26.55 83.53,5.24 83.65,-47.69 l 0.25,-86.61 2.53,-887.92"
         style="fill:#f3f2fc;fill-opacity:1;fill-rule:nonzero;stroke:none"
         id="path308" /><path
         d="m 2979.1,3557.09 -1366.85,-789.11 -0.25,86.55 c -0.11,52.94 37.06,117.4 83.12,143.95 l 1200.08,692.91 c 46.05,26.55 83.53,5.24 83.65,-47.69 l 0.25,-86.61"
         style="fill:#fe4340;fill-opacity:1;fill-rule:nonzero;stroke:none"
         id="path310" /><path
         d="m 2503.98,3008.83 c 0,117.68 -81.87,165.81 -182.84,107.51 -100.98,-58.3 -182.83,-200.95 -182.83,-318.62 0,-117.67 81.86,-165.8 182.84,-107.5 100.97,58.3 182.83,200.94 182.83,318.61"
         style="fill:#3a2c99;fill-opacity:1;fill-rule:nonzero;stroke:none"
         id="path312" /><path
         d="m 2377.81,3053.65 c 0,-36.47 -25.37,-80.68 -56.67,-98.75 -31.3,-18.08 -56.67,-3.16 -56.67,33.32 0,36.47 25.37,80.69 56.67,98.76 31.3,18.06 56.67,3.15 56.67,-33.33"
         style="fill:#ffffff;fill-opacity:1;fill-rule:nonzero;stroke:none"
         id="path314" /><path
         d="m 2409.84,2799.96 v 109 c 0.01,47.64 -33.44,67.31 -74.33,43.7 l -28.74,-16.59 c -40.88,-23.6 -74.33,-81.89 -74.33,-129.54 v -108.99 l 177.4,102.42"
         style="fill:#ffffff;fill-opacity:1;fill-rule:nonzero;stroke:none"
         id="path316" /><path
         d="m 2333.15,2951.3 -24.02,-13.87 24.02,13.87"
         style="fill:#bfbeed;fill-opacity:1;fill-rule:nonzero;stroke:none"
         id="path318" /><path
         d="m 2606.28,2711.71 -570.27,-329.23 v 95.98 l 570.27,329.23 v -95.98"
         style="fill:#ffffff;fill-opacity:1;fill-rule:nonzero;stroke:none"
         id="path320" /><path
         d="m 2430.19,2402.16 -212.53,-122.7 v -61.58 l 212.53,122.7 v 61.58"
         style="fill:#3a2c99;fill-opacity:1;fill-rule:nonzero;stroke:none"
         id="path322" /><path
         d="m 2606.28,2563 -570.26,-329.24 v 95.98 l 570.26,329.24 V 2563"
         style="fill:#ffffff;fill-opacity:1;fill-rule:nonzero;stroke:none"
         id="path324" /><path
         d="m 2078.86,2304.53 -10.37,-2.42 1.58,6.89 10.37,1.55 -0.31,13.45 5.25,3.03 -0.34,-14.02 10.2,10.24 1.57,-5.1 -10.53,-9.69 6.79,-6.82 -4.25,-6.19 -6.39,7.74 -6.18,-14.71 -4.29,1.13 6.9,14.92"
         style="fill:#f22b38;fill-opacity:1;fill-rule:nonzero;stroke:none"
         id="path326" /><path
         d="m 2109.14,2322.01 -10.37,-2.42 1.58,6.89 10.37,1.55 -0.31,13.45 5.25,3.03 -0.34,-14.02 10.19,10.24 1.58,-5.1 -10.54,-9.69 6.8,-6.82 -4.26,-6.18 -6.38,7.73 -6.18,-14.71 -4.29,1.13 6.9,14.92"
         style="fill:#f22b38;fill-opacity:1;fill-rule:nonzero;stroke:none"
         id="path328" /><path
         d="m 2139.42,2339.5 -10.37,-2.42 1.58,6.88 10.36,1.55 -0.31,13.45 5.26,3.03 -0.34,-14.02 10.19,10.25 1.58,-5.11 -10.54,-9.69 6.8,-6.82 -4.26,-6.18 -6.38,7.73 -6.18,-14.71 -4.29,1.13 6.9,14.93"
         style="fill:#f22b38;fill-opacity:1;fill-rule:nonzero;stroke:none"
         id="path330" /><path
         d="m 2169.69,2356.98 -10.36,-2.43 1.58,6.89 10.36,1.55 -0.31,13.45 5.26,3.03 -0.35,-14.02 10.2,10.25 1.58,-5.11 -10.54,-9.69 6.8,-6.82 -4.26,-6.18 -6.38,7.73 -6.19,-14.71 -4.29,1.13 6.9,14.93"
         style="fill:#f22b38;fill-opacity:1;fill-rule:nonzero;stroke:none"
         id="path332" /><path
         d="m 2199.97,2374.46 -10.36,-2.43 1.58,6.9 10.36,1.54 -0.31,13.45 5.26,3.03 -0.35,-14.02 10.2,10.25 1.58,-5.11 -10.54,-9.69 6.79,-6.82 -4.25,-6.18 -6.39,7.73 -6.18,-14.71 -4.29,1.13 6.9,14.93"
         style="fill:#f22b38;fill-opacity:1;fill-rule:nonzero;stroke:none"
         id="path334" /><path
         d="m 2847.56,3569.31 c 0,-11.33 7.96,-15.93 17.78,-10.26 9.81,5.67 17.77,19.45 17.77,30.79 0,11.33 -7.96,15.93 -17.77,10.26 -9.82,-5.67 -17.78,-19.45 -17.78,-30.79"
         style="fill:#f4f4fa;fill-opacity:1;fill-rule:nonzero;stroke:none"
         id="path336" /><path
         d="m 2791.57,3536.98 c 0,-11.33 7.96,-15.92 17.78,-10.25 9.82,5.66 17.77,19.45 17.77,30.78 0,11.34 -7.95,15.93 -17.77,10.27 -9.82,-5.67 -17.78,-19.46 -17.78,-30.8"
         style="fill:#f4f4fa;fill-opacity:1;fill-rule:nonzero;stroke:none"
         id="path338" /><path
         d="m 2735.58,3504.66 c 0,-11.33 7.96,-15.93 17.78,-10.26 9.82,5.67 17.77,19.45 17.77,30.79 0,11.33 -7.95,15.93 -17.77,10.26 -9.82,-5.67 -17.78,-19.45 -17.78,-30.79"
         style="fill:#f4f4fa;fill-opacity:1;fill-rule:nonzero;stroke:none"
         id="path340" /><path
         d="m 1237.7,753.301 212.29,-123.039 c -25.61,14.879 -41.54,46.418 -41.67,91.136 l -212.28,123.051 c 0.12,-44.719 16.06,-76.258 41.66,-91.148"
         style="fill:#ffb700;fill-opacity:1;fill-rule:nonzero;stroke:none"
         id="path342" /><g
         id="g344"><g
           id="g346"
           clip-path="url(#clipPath350)"><path
             d="m 1408.32,721.398 -212.28,123.051 c 0.12,-44.719 16.06,-76.258 41.66,-91.148 l 212.29,-123.039 c -25.61,14.879 -41.54,46.418 -41.67,91.136"
             style="fill:#ffb700;fill-opacity:1;fill-rule:nonzero;stroke:none"
             id="path352" /></g></g><path
         d="m 2134.38,1813.35 -212.29,123.05 c -25.94,15.08 -61.8,13.05 -101.23,-9.71 l 212.29,-123.04 c 39.42,22.76 75.29,24.78 101.23,9.7"
         style="fill:#ffde38;fill-opacity:1;fill-rule:nonzero;stroke:none"
         id="path354" /><g
         id="g356"><g
           id="g358"
           clip-path="url(#clipPath362)"><path
             d="m 2134.38,1813.35 -212.29,123.05 c -25.52,14.84 -60.66,13.12 -99.35,-8.64 l 212.28,-123.05 c 38.69,21.76 73.83,23.48 99.36,8.64"
             style="fill:#ffde38;fill-opacity:1;fill-rule:nonzero;stroke:none"
             id="path364" /><path
             d="m 2035.02,1804.71 -212.28,123.05 -1.88,-1.07 212.29,-123.04 1.87,1.06"
             style="fill:#ffde38;fill-opacity:1;fill-rule:nonzero;stroke:none"
             id="path366" /></g></g><path
         d="m 1406.74,1277.94 -212.28,123.05 1.58,-556.541 212.28,-123.051 -1.58,556.542"
         style="fill:#ffb700;fill-opacity:1;fill-rule:nonzero;stroke:none"
         id="path368" /><path
         d="m 2033.15,1803.65 -212.29,123.04 -484.34,-279.63 212.29,-123.05 484.34,279.64"
         style="fill:#ffde38;fill-opacity:1;fill-rule:nonzero;stroke:none"
         id="path370" /><path
         d="m 1548.81,1524.01 -212.29,123.05 c -78.37,-45.25 -142.32,-156.01 -142.06,-246.07 l 212.28,-123.05 c -0.25,90.06 63.69,200.82 142.07,246.07"
         style="fill:#ffde38;fill-opacity:1;fill-rule:nonzero;stroke:none"
         id="path372" /><g
         id="g374"><g
           id="g376"
           clip-path="url(#clipPath380)"><path
             d="m 1548.81,1524.01 -212.29,123.05 c -16.85,-9.73 -33.03,-22.49 -48.05,-37.41 l 212.28,-123.05 c 15.02,14.93 31.21,27.68 48.06,37.41"
             style="fill:#ffde38;fill-opacity:1;fill-rule:nonzero;stroke:none"
             id="path382" /><path
             d="m 1500.75,1486.6 -212.28,123.05 c -54.85,-54.51 -94.21,-137.96 -94.01,-208.66 l 212.28,-123.05 c -0.2,70.7 39.16,154.16 94.01,208.66"
             style="fill:#ffde38;fill-opacity:1;fill-rule:nonzero;stroke:none"
             id="path384" /></g></g><path
         d="M 1548.81,1524.01 C 1470.43,1478.76 1406.49,1368 1406.74,1277.94 l 1.58,-556.542 c 0.25,-90.058 64.62,-126.66 142.99,-81.418 l 484.34,279.641 c 78.38,45.25 142.26,155.899 142.01,245.949 l -1.58,556.55 c -0.26,90.06 -64.56,126.78 -142.93,81.53 l -484.34,-279.64"
         style="fill:#ffc400;fill-opacity:1;fill-rule:nonzero;stroke:none"
         id="path386" /><path
         d="m 1885.4,1054.82 c 0.14,37.3 -25.99,52.51 -58.37,33.99 -32.37,-18.54 -58.72,-63.8 -58.87,-101.091 -0.08,-24.59 11.27,-39.489 28.26,-41.547 l -0.39,-106.192 60.29,34.52 0.4,106.172 c 17.07,21.568 28.59,49.558 28.68,74.148"
         style="fill:#262028;fill-opacity:1;fill-rule:nonzero;stroke:none"
         id="path388" /><path
         d="m 2033.15,2156 -1.12,-295.75 c -0.04,-10.29 -6.79,-20.52 -20.28,-28.34 -26.99,-15.59 -70.59,-15.44 -97.46,0.37 -13.47,7.92 -20.15,18.3 -20.07,28.62 l 1.12,295.62 c 0.19,51.58 -14.29,89.68 -39.75,104.5 -25.47,14.83 -65.73,8.62 -110.52,-17.02 l -76.1,-43.54 c -119.24,-68.24 -220.37,-241.95 -220.89,-379.33 l -1.11,-295.76 c -0.04,-10.29 -6.83,-20.55 -20.32,-28.33 -17.3,-10.01 -41.45,-13.53 -63.64,-10.59 -12.38,1.63 -24.17,5.28 -33.78,10.95 -3.64,2.15 -6.77,4.43 -9.39,6.86 -7.2,6.63 -10.75,14.19 -10.68,21.73 l 1.07,295.65 c 0.34,89.88 30.5,190.87 84.92,284.3 54.38,93.39 127.33,169.46 205.35,214.11 l 76.11,43.57 c 43.01,24.6 85.83,38.84 127.25,42.3 43.95,3.63 85.82,-5.3 121.08,-25.83 35.26,-20.52 63.65,-52.54 82.17,-92.53 17.47,-37.75 26.22,-82 26.04,-131.56"
         style="fill:#dadaf9;fill-opacity:1;fill-rule:nonzero;stroke:none"
         id="path390" /><path
         d="m 1893.61,2244.78 c -7.75,4.52 -16.91,7.06 -27.12,7.72 18.61,-18.41 29.01,-52.33 28.84,-95.99 l -1.11,-295.61 c -0.09,-10.33 6.6,-20.69 20.07,-28.62 5.38,-3.16 11.44,-5.67 17.89,-7.58 l 1.18,315.58 c 0.2,51.59 -14.29,89.68 -39.75,104.5"
         style="fill:#bfbeed;fill-opacity:1;fill-rule:nonzero;stroke:none"
         id="path392" /><path
         d="m 1934.19,2362.63 c -24.06,6.8 -49.86,9.21 -76.43,6.99 -41.45,-3.41 -84.24,-17.66 -127.28,-42.26 l -76.11,-43.57 c -78.03,-44.65 -150.94,-120.72 -205.36,-214.15 -54.42,-93.39 -84.54,-194.38 -84.88,-284.29 l -1.12,-298.9 c -12.38,1.63 -24.17,5.28 -33.78,10.95 -3.64,2.15 -6.77,4.43 -9.39,6.86 l 1.12,299.11 c 0.34,89.92 30.49,190.87 84.87,284.3 54.43,93.43 127.37,169.47 205.39,214.11 l 76.11,43.57 c 43.01,24.64 85.84,38.85 127.26,42.3 43.36,3.6 84.66,-5.08 119.6,-25.02"
         style="fill:#f4f4fa;fill-opacity:1;fill-rule:nonzero;stroke:none"
         id="path394" /></g></g></svg>
